# xmcd
#
# Track frame offsets: 
#        150
#        13080
#        31147
#        46952
#        60307
#        75210
#        97127
#        115985
#        132602
#        147050
#        157847
#        176350
#        195600
#        209317
#        222340
#        242752
#        258475
#
# Disc length: 3625 seconds
#
# Revision: 9
# Processed by: cddbd v1.5.2PL0 Copyright (c) Steve Scherf et al.
# Submitted via: ExactAudioCopy v0.99pb4
#
DISCID=e40e2711
DTITLE=Cássia Eller - Acústico MTV
DYEAR=0
DGENRE=Rock
TTITLE0=Non, Je Ne Regrete Rien
TTITLE1=Malandragem
TTITLE2=E.C.T.
TTITLE3=Vá Morar Com o Diabo
TTITLE4=Partido Alto
TTITLE5=Primeiro de Julho
TTITLE6=Luz dos Olhos
TTITLE7=Todo Amor Que Houver Nessa Vida
TTITLE8=Queremos Saber
TTITLE9=Por Enquanto
TTITLE10=Relicário
TTITLE11=Segundo Sol
TTITLE12=Nós
TTITLE13=Sgt. Pepper's Lonely Hearts Club Band
TTITLE14=De Esquina
TTITLE15=Quando A Maré Encher
TTITLE16=Top Top
EXTD=
EXTT0=
EXTT1=
EXTT2=
EXTT3=
EXTT4=
EXTT5=
EXTT6=
EXTT7=
EXTT8=
EXTT9=
EXTT10=
EXTT11=
EXTT12=
EXTT13=
EXTT14=
EXTT15=
EXTT16=
PLAYORDER=
